<?xml version="1.0" standalone="no"?>
<!DOCTYPE svg PUBLIC "-//W3C//DTD SVG 20010904//EN"
 "http://www.w3.org/TR/2001/REC-SVG-20010904/DTD/svg10.dtd">
<svg version="1.0" xmlns="http://www.w3.org/2000/svg"
 width="1031.000000pt" height="1031.000000pt" viewBox="0 0 1031.000000 1031.000000"
 preserveAspectRatio="xMidYMid meet">
<metadata>
Created by potrace 1.11, written by Peter Selinger 2001-2013
</metadata>
<g transform="translate(0.000000,1031.000000) scale(0.100000,-0.100000)"
fill="#000000" stroke="none">
<path d="M4888 10305 c-1 -2 -50 -6 -108 -9 -58 -4 -116 -8 -130 -10 -14 -3
-56 -7 -93 -11 -37 -3 -76 -8 -85 -10 -33 -6 -97 -15 -136 -20 -21 -2 -46 -7
-55 -9 -9 -3 -34 -8 -56 -11 -36 -5 -247 -49 -285 -59 -8 -2 -28 -7 -45 -11
-191 -45 -594 -181 -770 -259 -635 -284 -1138 -624 -1595 -1078 -182 -181
-357 -380 -471 -533 -24 -33 -50 -66 -56 -73 -28 -29 -265 -395 -326 -502 -91
-161 -194 -370 -266 -538 -34 -78 -61 -145 -61 -148 0 -3 -6 -20 -14 -37 -40
-89 -172 -512 -189 -607 -3 -14 -10 -43 -15 -65 -6 -22 -13 -51 -16 -65 -12
-65 -27 -137 -31 -160 -15 -76 -26 -141 -30 -185 -3 -27 -8 -57 -10 -65 -2 -8
-7 -46 -11 -85 -3 -38 -8 -77 -9 -86 -27 -138 -26 -788 0 -1034 11 -98 14
-121 30 -230 135 -920 507 -1768 1099 -2499 89 -110 108 -132 216 -249 131
-141 252 -259 414 -402 6 -5 49 -42 96 -80 388 -320 830 -586 1290 -778 204
-85 352 -137 560 -196 130 -37 184 -51 288 -75 144 -33 391 -75 537 -91 33 -4
70 -8 83 -10 173 -27 786 -27 1027 0 22 3 65 7 95 11 98 11 124 14 180 24 30
5 73 12 95 15 22 4 47 8 55 10 8 3 32 7 54 11 149 23 480 111 691 184 108 37
270 100 350 135 394 173 708 354 1045 603 92 68 264 206 290 232 3 3 48 43
100 90 217 195 449 446 618 670 40 52 77 101 83 108 45 54 309 461 309 477 0
3 12 24 27 48 38 60 183 352 236 478 91 213 230 618 251 731 2 13 11 50 20 83
31 120 79 367 91 470 4 28 8 57 10 65 2 8 7 49 10 90 4 41 8 82 10 90 19 72
27 716 12 890 -15 162 -25 257 -37 330 -5 30 -12 78 -15 105 -3 28 -8 57 -10
65 -2 8 -6 26 -9 40 -7 43 -28 155 -31 165 -1 6 -5 21 -8 35 -4 14 -14 57 -23
95 -52 224 -149 518 -250 761 -557 1338 -1657 2383 -3023 2873 -312 112 -663
200 -981 246 -25 4 -56 8 -70 10 -38 6 -108 14 -185 21 -38 3 -86 8 -105 10
-42 6 -657 14 -662 9z m492 -1409 c125 -7 184 -12 245 -21 22 -4 58 -8 80 -11
22 -3 63 -9 90 -15 28 -5 66 -12 85 -15 19 -3 53 -10 75 -16 22 -5 51 -12 64
-15 47 -8 237 -62 331 -93 231 -77 486 -194 688 -314 57 -33 118 -69 135 -79
18 -11 55 -35 82 -56 28 -20 68 -49 91 -64 158 -106 401 -325 584 -523 471
-511 793 -1167 914 -1859 14 -77 28 -167 32 -200 3 -33 8 -68 10 -79 21 -115
20 -658 -1 -768 -2 -11 -7 -47 -10 -81 -3 -34 -8 -69 -10 -77 -2 -8 -7 -35
-10 -60 -4 -25 -16 -90 -27 -145 -11 -55 -21 -107 -23 -116 -2 -10 -18 -68
-35 -130 -123 -444 -331 -871 -598 -1230 -96 -128 -139 -181 -237 -288 -491
-540 -1113 -921 -1807 -1107 -129 -34 -158 -41 -213 -50 -16 -3 -46 -9 -65
-14 -19 -5 -73 -14 -120 -20 -47 -6 -101 -14 -120 -17 -41 -6 -63 -8 -225 -18
-179 -12 -520 -7 -615 10 -14 2 -47 6 -74 9 -72 8 -233 34 -291 47 -375 82
-632 172 -940 328 -220 112 -481 277 -620 392 -220 183 -358 313 -490 463 -39
44 -77 87 -85 95 -26 29 -164 213 -221 296 -112 163 -268 447 -341 620 -152
361 -256 770 -283 1110 -4 44 -8 96 -11 115 -6 55 -6 417 0 500 8 99 15 177
21 220 12 95 17 123 36 230 42 240 128 523 237 785 35 85 163 334 217 425 235
391 506 705 869 1008 37 31 195 147 276 203 235 163 588 338 875 434 160 53
421 121 540 139 17 3 44 7 60 10 77 13 94 15 150 21 33 4 74 9 90 11 17 2 84
7 150 10 66 4 121 7 122 8 4 3 218 -3 323 -8z"/>
</g>
</svg>
