<?xml version="1.0" encoding="utf-8"?>
<!-- Generator: Adobe Illustrator 21.1.0, SVG Export Plug-In . SVG Version: 6.00 Build 0)  -->
<svg version="1.1" id="Layer_1" xmlns="http://www.w3.org/2000/svg" xmlns:xlink="http://www.w3.org/1999/xlink" x="0px" y="0px"
	 viewBox="0 0 459 459" style="enable-background:new 0 0 459 459;" xml:space="preserve">
<style type="text/css">
	.st0{fill:#FFFFFF;}
</style>
<title>Asset 1</title>
<g id="Layer_2">
	<g id="Layer_1-2">
		<path class="st0" d="M229.5,434C116.7,434,25,342.3,25,229.5S116.7,25,229.5,25S434,116.7,434,229.5S342.3,434,229.5,434z"/>
		<path class="st0" d="M229.5,50C328.6,50,409,130.4,409,229.5c0,47.6-18.9,93.3-52.6,126.9c-70.1,70.1-183.8,70.1-253.9,0
			s-70.1-183.8,0-253.9C136.2,68.8,181.9,49.9,229.5,50 M229.5,0C102.8,0,0,102.8,0,229.5S102.8,459,229.5,459S459,356.2,459,229.5
			S356.2,0,229.5,0z"/>
	</g>
</g>
</svg>
