<?xml version="1.0" encoding="utf-8"?>
<!-- Generator: Adobe Illustrator 23.1.1, SVG Export Plug-In . SVG Version: 6.00 Build 0)  -->
<svg version="1.1" id="Layer_1" xmlns="http://www.w3.org/2000/svg" xmlns:xlink="http://www.w3.org/1999/xlink" x="0px" y="0px"
	 viewBox="0 0 512 162" style="enable-background:new 0 0 512 162;" xml:space="preserve">
<style type="text/css">
	.st0{fill:#FFFFFF;}
</style>
<g>
	<g>
		<g>
			<path class="st0" d="M77.8,142.5c-33.9,0-61.6-27.6-61.6-61.5s27.6-61.5,61.6-61.5c33.9,0,61.5,27.6,61.5,61.5
				C139.4,114.9,111.8,142.5,77.8,142.5z M77.8,38.7c-23.4,0-42.4,19-42.4,42.3c0,23.4,19,42.3,42.4,42.3c23.3,0,42.3-19,42.3-42.3
				C120.2,57.6,101.2,38.7,77.8,38.7z"/>
		</g>
		<g>
			<path class="st0" d="M256,142.5c-33.9,0-61.6-27.6-61.6-61.5S222,19.5,256,19.5s61.6,27.6,61.6,61.5S289.9,142.5,256,142.5z
				 M256,38.7c-23.4,0-42.4,19-42.4,42.3c0,23.4,19,42.3,42.4,42.3s42.4-19,42.4-42.3C298.4,57.6,279.4,38.7,256,38.7z"/>
		</g>
		<g>
			<path class="st0" d="M434.1,142.5c-33.9,0-61.5-27.6-61.5-61.5s27.6-61.5,61.5-61.5s61.6,27.6,61.6,61.5S468.1,142.5,434.1,142.5
				z M434.1,38.7c-23.3,0-42.3,19-42.3,42.3c0,23.4,19,42.3,42.3,42.3c23.4,0,42.4-19,42.4-42.3C476.5,57.6,457.5,38.7,434.1,38.7z"
				/>
		</g>
	</g>
</g>
</svg>
